<svg xmlns="http://www.w3.org/2000/svg" width="32" height="32" viewBox="0 0 32 32">
    <defs>
        <style>
            .cls-3{fill:#f8d0a7}.cls-5{fill:#a2e2e7}
        </style>
    </defs>
    <g id="ic_anniversary_clapping" transform="translate(-7.101 -773.91)">
        <path id="area" fill="rgba(0,0,0,0.16)" d="M0 0H32V32H0z" opacity="0.005" transform="translate(7.101 773.91)"/>
        <g id="icon" transform="translate(0 .712)">
            <g id="그룹" transform="translate(9.101 778.624)">
                <path id="패스_13873" fill="#fcd9b6" d="M9.1 791.911l2.942-.769.045-.013 1.786-2.615L18.8 781.3a1.539 1.539 0 0 1 .615-.529 1.608 1.608 0 0 1 1.485.047l.071.039a1.523 1.523 0 0 1 .509 2.066l-2.711 4.577 12.518-3.273.038-.008H31.822l.025.006h.011l.022.006h.017l.018.005.026.006h.006a1.559 1.559 0 0 1 .453.149l.022.013.027.016.031.017h.011l.021.013.031.017.027.016h.01l.023.013a1.487 1.487 0 0 1 .05 2.386v.005l-.017.014-.021.016v.005l-.031.022-.013.008v.006l-.011.006-.015.01-.025.016v.009l-.019.013-.011.006c0 .005-.014.008-.022.012v.005a.164.164 0 0 1-.031.016l-.028.013v.005l-.014.006v.012a.623.623 0 0 1-.061.026l-.026.01c-.022.008-.043.016-.067.023h-.017l2.94-.772a1.577 1.577 0 0 1 .712-.02 1.626 1.626 0 0 1 .409.143l.023.013.027.016.03.017h.011l.021.012.031.017.027.016h.01l.021.012h.024l.025.015h.009l.023.018h.008l.023.02.027.023.053.052h.01l.018.018.012.013.012.014.014.015.01.012.015.016h.011l.016.019h.009l.015.021h.008l.016.022.016.026a1.475 1.475 0 0 1 .259.825v.069l-.005.021v.032l-.005.018v.015l-.006.023v.008l-.008.029v.005a1.486 1.486 0 0 1-.189.527 1.517 1.517 0 0 1-.448.478l-.088.046-.015.008-.024.014-.011.007-.031.017-.017.008-.014.007-.026.012-.009.005-.031.014-.046.021-.022.009-.022.006-.01.005-.025.008-.037.013h-.009l-.027.006h-.01l-.032.01-2.389.674.034-.008h.011l.024-.005.016-.005.022-.005H33.845a1.572 1.572 0 0 1 .63.081h.008l.016.009.019.011h.017a1.54 1.54 0 0 1 .2.094.837.837 0 0 1 .124.078 1.5 1.5 0 0 1 .454.5.74.74 0 0 1 .042.082c.016.031.03.064.043.1l.006.015v.015l.009.019v.008a1.486 1.486 0 0 1 .07.688c-.008.03-.01.061-.017.1l-.006.024v.008a1.457 1.457 0 0 1-.172.432 1.532 1.532 0 0 1-.324.384l-.056.045v.005l-.055.041v.005a1.546 1.546 0 0 1-.316.165l-.037.015-.024.008-.093.029h-.017l-4.14 1.083H30.262l.026-.005h.009l.032-.005.075-.011h.037a1.614 1.614 0 0 1 .714.1h.012c.044.018.086.037.131.058l.1.054.021.012.032.018.025.014h.011l.021.012h.005a1.534 1.534 0 0 1 .43.471l.013.021v.007l.012.02.014.024.013.029q.032.071.058.146l.01.032.005.017v.012l.006.023v.005l.018.069a1.469 1.469 0 0 1 .018.514 1.516 1.516 0 0 1-1.056 1.238h-.009l-.026.008h-.01l-.032.011-6.547 1.711-9.435.591-3.582.937z" transform="translate(-9.101 -780.615)"/>
                <path id="패스_13841" d="M16.9 793.954l-1.367-5.006a1.6 1.6 0 0 0-1.7-1.172l-1.387 2.078 1.593 9.292.6-.164.673-.042z" class="cls-3" transform="translate(-8.836 -780.272)"/>
                <path id="패스_13850" fill="#ffe8c9" d="M31.029 790.632a1.542 1.542 0 0 0-2.087.545l2.181-3.709a1.487 1.487 0 0 0-.522-2.06 1.542 1.542 0 0 0-2.1.514l-.026.045 1.309-2.228a1.487 1.487 0 0 0-.522-2.061 1.544 1.544 0 0 0-2.1.514l-.026.045-1.527 2.6a1.487 1.487 0 0 0-.6-2.038 1.54 1.54 0 0 0-2.04.537l-6.433 10.951-1.365-4.93a1.605 1.605 0 0 0-1.967-1.1 1.575 1.575 0 0 0-1.155 1.78l2.055 11.78 7.57 4.305 6.626-7.832 3.3-5.613a1.487 1.487 0 0 0-.571-2.045z" transform="translate(-8.869 -780.547)"/>
                <path id="패스_13857" d="M24.379 782.725a1.52 1.52 0 0 0-1.447-.043 1.527 1.527 0 0 1 1.411 2.288l-3.661 7.206 4.256-7.365a1.527 1.527 0 0 0-.557-2.086z" class="cls-3" transform="translate(-8.158 -780.464)"/>
                <path id="패스_13858" d="M28.341 781.689a1.528 1.528 0 0 0-1.448-.042 1.526 1.526 0 0 1 1.411 2.288l-4.969 9.473 5.564-9.632a1.526 1.526 0 0 0-.557-2.085z" class="cls-3" transform="translate(-7.939 -780.545)"/>
                <path id="패스_13859" d="M29.53 785.2a1.523 1.523 0 0 0-1.448-.042 1.526 1.526 0 0 1 1.411 2.288l-4.315 8.341 4.909-8.5a1.526 1.526 0 0 0-.555-2.085z" class="cls-3" transform="translate(-7.79 -780.399)"/>
                <path id="패스_13860" d="M29.871 790.12a1.523 1.523 0 0 0-1.448-.042 1.527 1.527 0 0 1 1.411 2.288l-3.176 6.117.477-.574 3.295-5.7a1.525 1.525 0 0 0-.556-2.084z" class="cls-3" transform="translate(-7.671 -780.122)"/>
            </g>
            <g id="그룹-2" transform="translate(24.366 775.198)">
                <path id="사각형_4115" d="M0 0H2.974V0.991H0z" class="cls-5" transform="rotate(-69.88 3.874 -1.29)"/>
                <path id="사각형_4116" d="M0 0H0.991V2.974H0z" class="cls-5" transform="rotate(-24.849 1.984 .437)"/>
                <path id="사각형_4117" d="M0 0H2.974V0.991H0z" class="cls-5" transform="rotate(-39.829 8.074 -6.87)"/>
            </g>
        </g>
    </g>
</svg>
