<svg xmlns="http://www.w3.org/2000/svg" width="32" height="32" viewBox="0 0 32 32">
    <g>
        <g>
            <path fill="#fc696f" d="M19.052 0A6.931 6.931 0 0 0 13 3.577 6.931 6.931 0 0 0 6.949 0C3.111 0 0 3.6 0 7.472 0 17.208 13 24 13 24s13-6.792 13-16.528C26 3.6 22.89 0 19.052 0zm0 0" transform="translate(-91 -206) translate(94 210)"/>
            <path fill="#ef5158" d="M1.793 7.472A7.5 7.5 0 0 1 7.9.065 6.848 6.848 0 0 0 6.949 0C3.111 0 0 3.6 0 7.472 0 17.208 13 24 13 24s.336-.176.9-.509C10.96 21.746 1.793 15.648 1.793 7.472zm0 0" transform="translate(-91 -206) translate(94 210)"/>
        </g>
    </g>
</svg>
