<svg xmlns="http://www.w3.org/2000/svg" width="48" height="48" viewBox="0 0 48 48">
    <defs>
        <style>
            .cls-2{fill:rgba(0,0,0,.5)}.cls-5{stroke:none}
        </style>
    </defs>
    <g id="ic_empty_present" transform="translate(-101 -25)">
        <g id="outline" transform="translate(107 30.999)">
            <path id="빼기_213" d="M19415.777 16346H19403a6.008 6.008 0 0 1-6-6v-12.517a4.023 4.023 0 0 1-2-3.478v-1.99a3.988 3.988 0 0 1 4-3.99h3.219a5.2 5.2 0 0 1-.137-5.395 5.231 5.231 0 0 1 7.146-1.922 4.186 4.186 0 1 0 7.785 0 5.244 5.244 0 0 1 7.146 1.893l.01.01a5.268 5.268 0 0 1-.137 5.414h2.968a4 4 0 0 1 4 3.99v1.99a3.988 3.988 0 0 1-1.99 3.473v2.281a10.968 10.968 0 0 0-2.006-.572v-1.168h-13V16344h.75a10.951 10.951 0 0 0 1.025 2zm-16.771-17.985V16340a4 4 0 0 0 3.994 4h9.01v-15.985zm14.994-8v6h13.209a2.005 2.005 0 0 0 1.8-2.01v-1.99a2 2 0 0 0-2.006-2h-13zm-14.994 0a2.006 2.006 0 0 0-2.014 2v1.99a2.034 2.034 0 0 0 1.809 2.01h13.209v-6h-13zm20.633-8.024a3.118 3.118 0 0 0-1.6.439 18.858 18.858 0 0 0-3.117 4.868l-.346.722h6.609a.431.431 0 0 1 .072-.015h.01a.356.356 0 0 0 .055-.009 3.235 3.235 0 0 0 1.473-2 3.24 3.24 0 0 0-3.156-4zm-13.018.018a3.2 3.2 0 0 0-2.771 1.593l-.01.02a3.214 3.214 0 0 0 1.121 4.375.457.457 0 0 0 .055.009h.012a.422.422 0 0 1 .07.014h6.561l-.336-.712a18.678 18.678 0 0 0-3.107-4.873 3.194 3.194 0 0 0-1.595-.426z" class="cls-2" transform="translate(-19395 -16310)"/>
            <g id="빼기" fill="none">
                <path d="M16151 2444a10 10 0 1 1 10-10 10.011 10.011 0 0 1-10 10zm0-18a8 8 0 1 0 8 8 8.009 8.009 0 0 0-8-8z" class="cls-5" transform="translate(-16121 -2403.999)"/>
                <path fill="rgba(0,0,0,0.5)" d="M16151 2443.999c-5.515 0-10.002-4.485-10.002-9.998 0-5.515 4.487-10.002 10.002-10.002 5.515 0 10.002 4.487 10.002 10.002 0 5.513-4.487 9.998-10.002 9.998zm0-18c-4.41 0-7.998 3.59-7.998 8.002 0 4.41 3.588 7.998 7.998 7.998s7.998-3.588 7.998-7.998c0-4.412-3.588-8.002-7.998-8.002z" transform="translate(-16121 -2403.999)"/>
            </g>
            <g id="타원" fill="#fff" stroke="rgba(0,0,0,0.5)" transform="translate(29 33.001)">
                <circle cx="1" cy="1" r="1" class="cls-5"/>
                <circle cx="1" cy="1" r=".5" fill="none"/>
            </g>
            <rect id="사각형" width="2" height="7" class="cls-2" rx="1" transform="translate(29 25.001)"/>
        </g>
    </g>
</svg>
