<svg xmlns="http://www.w3.org/2000/svg" width="32" height="32" viewBox="0 0 32 32">
    <defs>
        <style>
            .cls-2{fill:#c8cdd3}
        </style>
    </defs>
    <g id="ic_anniversary_champagne" transform="translate(-488.545 -1144.018)">
        <g id="icon">
            <g id="그룹" transform="translate(510.355 1146.019)">
                <path id="패스_13876" d="M516.531 1158.006a2.793 2.793 0 0 1-1.966-.8.421.421 0 0 1 .009-.593.414.414 0 0 1 .573-.006 1.98 1.98 0 0 0 2.768 0 2.471 2.471 0 0 0 .053-3.477l-.053-.053a3.326 3.326 0 0 0-4.651 0 .414.414 0 0 1-.588-.021.421.421 0 0 1 .006-.577 4.159 4.159 0 0 1 5.816 0 3.312 3.312 0 0 1 .065 4.662l-.065.065a2.793 2.793 0 0 1-1.967.8z" class="cls-2" transform="translate(-511.824 -1146.37)"/>
                <path id="패스_13877" d="M512.92 1153a.42.42 0 0 1-.32-.686c.033-.04.81-.984 1.091-1.3a.969.969 0 0 0 .023-1.364l-.015-.015a.642.642 0 0 0-.912-.04l-.04.04a.415.415 0 0 0-.044.583.46.46 0 0 0 .044.045.42.42 0 0 1-.021.592.414.414 0 0 1-.583-.015 1.256 1.256 0 0 1-.018-1.767l.018-.018a1.471 1.471 0 0 1 2.089-.071c.024.022.048.046.07.071a1.806 1.806 0 0 1 .008 2.514c-.27.3-1.061 1.264-1.07 1.274a.416.416 0 0 1-.32.157z" class="cls-2" transform="translate(-511.771 -1146.19)"/>
                <path id="패스_13878" d="M514.675 1147.747a.418.418 0 0 1-.416-.419.72.72 0 0 0-.289-.547.421.421 0 0 1-.1-.583.415.415 0 0 1 .548-.123 1.548 1.548 0 0 1 .673 1.253.417.417 0 0 1-.416.419z" class="cls-2" transform="translate(-511.906 -1146.019)"/>
                <path id="패스_13879" d="M512.926 1147.89a.416.416 0 0 1-.28-.106.64.64 0 0 0-.28-.079.419.419 0 0 1 .046-.837 1.394 1.394 0 0 1 .793.293.421.421 0 0 1 .03.592.409.409 0 0 1-.31.138z" class="cls-2" transform="translate(-511.785 -1146.075)"/>
                <path id="패스_13880" d="M520.035 1152.974a.416.416 0 0 1-.345-.188.642.642 0 0 0-.253-.145.419.419 0 0 1 .242-.8 1.4 1.4 0 0 1 .7.476.421.421 0 0 1-.105.583.413.413 0 0 1-.239.075z" class="cls-2" transform="translate(-512.264 -1146.406)"/>
            </g>
            <g id="그룹-2">
                <path id="패스_13881" fill="#3585b7" d="M501.693 1158.945a16.05 16.05 0 0 0-5.519 3.627l-5.034 5.068a2.03 2.03 0 0 0-.013 2.859l3.771 3.795a2 2 0 0 0 2.841-.012l5.034-5.066a16.172 16.172 0 0 0 3.6-5.555l-.912-3.793z" transform="translate(0 -.862)"/>
                <path id="패스_13883" fill="#f8dc7c" d="M507.369 1162.673a16.165 16.165 0 0 1 3.859-6.255l.671-.676-1.886-1.9-.671.675a16.023 16.023 0 0 1-6.215 3.883c-.234.08-.466.166-.7.257l.677 4.033 4.007.681c.089-.229.18-.462.258-.698z" transform="translate(-.793 -.522)"/>
                <path id="패스_13884" fill="#ebcd64" d="M514.3 1153.685l-1.885-1.9a.333.333 0 0 0-.473 0l-1.9 1.915a.339.339 0 0 0 0 .476l1.886 1.9a.333.333 0 0 0 .472 0l1.9-1.915a.337.337 0 0 0 0-.476z" transform="translate(-1.294 -.378)"/>
                <path id="패스_13876-2" fill="#dcedf8" d="M499.779 1172.664l-6.64-6.607 3.3-3.369 6.6 6.642z" transform="translate(-.129 -1.112)"/>
                <circle id="타원_3301" cx="1.5" cy="1.5" r="1.5" fill="#60b3e6" transform="translate(496.545 1165.018)"/>
            </g>
        </g>
    </g>
</svg>
