<svg xmlns="http://www.w3.org/2000/svg" width="32" height="32" viewBox="0 0 32 32">
    <defs>
        <style>
            .cls-5{fill:#37c3a0}.cls-6{fill:#fce1c5}.cls-7{fill:#ffe8c9}.cls-8{fill:#ffddbc}.cls-10{fill:#5891dd}.cls-13{fill:#e6e9ed}
        </style>
    </defs>
    <g id="ic_anniversary_couple" transform="translate(-300 -206)">
        <g id="couple" transform="translate(298.719 208)">
            <g id="여" transform="translate(.151 -1.388)">
                <g id="머리">
                    <path id="패스_13877" fill="#63676a" d="M272.067 142.119v-9.789a6 6 0 0 1 12 0v9.789z" transform="translate(-252.939 -116.605)"/>
                    <path id="패스_13878" fill="#515760" d="M374.653 126.349a6.145 6.145 0 0 0-.83.057 6.088 6.088 0 0 1 5.257 6.03v9.964h1.66v-9.963a6.087 6.087 0 0 0-6.087-6.088z" transform="translate(-349.608 -116.605)"/>
                </g>
                <path id="shadow" fill="#55d6b6" d="M282.435 404.887H280.8l-1.636 1.106-1.092-.553-1.364.553-1.365-1.106H273.7a1.648 1.648 0 0 0-1.637 1.66v3.458a.412.412 0 0 0 .409.415h11.186a.412.412 0 0 0 .409-.415v-3.458a1.648 1.648 0 0 0-1.632-1.66z" transform="translate(-252.939 -381.032)"/>
                <path id="shadow-2" d="M445.109 404.887h-1.66a1.659 1.659 0 0 1 1.66 1.66v3.873h1.245a.415.415 0 0 0 .415-.415v-3.458a1.659 1.659 0 0 0-1.66-1.66z" class="cls-5" transform="translate(-415.637 -381.032)"/>
                <g id="얼굴" transform="translate(20.787 16.108)">
                    <path id="패스_13887" d="M340.626 378.66h1.074a2.683 2.683 0 1 1-5.364 0h1.073v-1.428a4.186 4.186 0 0 0 3.219 0z" class="cls-6" transform="translate(-334.675 -370.913)"/>
                    <path id="패스_13888" d="M312.885 254.929v2.215a4.425 4.425 0 0 1-2.713 4.1 4.282 4.282 0 0 1-3.257 0 4.427 4.427 0 0 1-2.714-4.1v-2.214h1.72l.994-1.048 1.053 1.048z" class="cls-7" transform="translate(-304.201 -254.929)"/>
                    <path id="패스_13889" d="M377.42 254.929v2.261a4.518 4.518 0 0 1-2.766 4.19 4.3 4.3 0 0 1-.831.249 4.357 4.357 0 0 0 2.491-.249 4.518 4.518 0 0 0 2.766-4.19v-2.261h-1.66z" class="cls-8" transform="translate(-370.396 -254.929)"/>
                </g>
                <g id="옷" transform="translate(21.394 27.313)">
                    <path id="패스_13890" d="M318 471.833a.415.415 0 0 0-.415.415v1.66h.83v-1.66a.415.415 0 0 0-.415-.415z" class="cls-5" transform="translate(-317.585 -471.833)"/>
                    <path id="패스_13891" d="M446.546 471.833a.415.415 0 0 0-.415.415v1.66h.83v-1.66a.415.415 0 0 0-.415-.415z" class="cls-5" transform="translate(-439.49 -471.833)"/>
                </g>
            </g>
            <g id="남" transform="translate(-1.002 -1.579)">
                <path id="옷-2" fill="#70aaf5" d="M16.3 394.176H6.18a1.894 1.894 0 0 0-1.9 1.893v4.574a.474.474 0 0 0 .474.473H17.72a.474.474 0 0 0 .474-.473v-4.574a1.894 1.894 0 0 0-1.894-1.893z" transform="translate(0 -371.538)"/>
                <g id="얼굴-2" transform="translate(0 -1)">
                    <path id="사각형_4112" d="M0 0H5.5V3H0z" class="cls-6" transform="translate(8.456 20.579)"/>
                    <path id="패스_13880" d="M45.6 234.448l.92 1.835h-.006v1.894a5.063 5.063 0 0 1-10.126 0v-1.894l1.381-1.836a7 7 0 0 0 3.225.919 20.4 20.4 0 0 0 4.606-.918z" class="cls-7" transform="translate(-30.211 -221.144)"/>
                    <path id="패스_13881" d="M111.178 234.448s-.4.128-.992.288v3.484a5.1 5.1 0 0 1-4.146 5.011q.115.022.232.038c.074.011.148.019.223.027h.018c.068.006.137.011.206.015h.036q.119.006.239.006a5.1 5.1 0 0 0 5.1-5.1v-1.915h.006z" class="cls-8" transform="translate(-95.74 -221.144)"/>
                </g>
                <path id="shadow-3" d="M177.558 394.176h-1.893a1.892 1.892 0 0 1 1.893 1.893v5.047h1.42a.473.473 0 0 0 .473-.473v-4.574a1.892 1.892 0 0 0-1.893-1.893z" class="cls-10" transform="translate(-161.166 -371.538)"/>
                <g id="shadow-4" transform="translate(6.979 27.213)">
                    <path id="패스_13885" d="M50.279 471.833a.473.473 0 0 0-.473.473v1.894h.946v-1.893a.473.473 0 0 0-.473-.474z" class="cls-10" transform="translate(-49.806 -471.833)"/>
                    <path id="패스_13886" d="M178.826 471.833a.473.473 0 0 0-.473.473v1.894h.946v-1.893a.473.473 0 0 0-.473-.474z" class="cls-10" transform="translate(-170.781 -471.833)"/>
                </g>
                <g id="머리-2" transform="translate(0 -.9)">
                    <path id="패스_13897" fill="#965353" d="M43.007 150.271v-2.069a.477.477 0 0 0-.478-.477c-3.689-.019-8.7-.118-7.81 6.993l1.391-1.849a7.046 7.046 0 0 0 3.248.925 20.542 20.542 0 0 0 4.642-.926l.927 1.848c.926-4.623-1.92-4.445-1.92-4.445z" transform="translate(-28.544 -139.644)"/>
                    <path id="패스_13898" fill="#864b4c" d="M145.426 150.3v-2.054a.473.473 0 0 0-.423-.47c-.472 0-.967-.006-1.47 0v2.524c0 1.514 1.893.82 1.893 2.864.479-.133.981-.285.981-.285l.917 1.835c.92-4.595-1.898-4.414-1.898-4.414z" transform="translate(-130.943 -139.687)"/>
                </g>
                <g id="옷-3" transform="translate(8.083 20.888)">
                    <path id="패스_13899" d="M125.263 365.018a5.053 5.053 0 0 1-3.155 1.137v.891l1 .5a.472.472 0 0 0 .5-.027l1.656-1.1z" class="cls-13" transform="translate(-118.953 -364.677)"/>
                    <path id="패스_13900" d="M68.546 365.042a5.027 5.027 0 0 0 3.155 1.107v.9l-1 .5a.472.472 0 0 1-.5-.027l-1.656-1.1z" class="cls-13" transform="translate(-68.546 -364.677)"/>
                </g>
            </g>
            <g id="heart" transform="translate(14.283 .001)">
                <path id="패스_13873" fill="#fc696f" d="M5.862 0A2.154 2.154 0 0 0 4 1.043 2.154 2.154 0 0 0 2.138 0 2.207 2.207 0 0 0 0 2.179C0 5.019 4 7 4 7s4-1.981 4-4.821A2.207 2.207 0 0 0 5.862 0zm0 0"/>
                <path id="패스_13874" fill="#ef5158" d="M.546 2.179a2.215 2.215 0 0 1 1.86-2.16A2.179 2.179 0 0 0 2.118 0 2.2 2.2 0 0 0 0 2.179C0 5.019 3.962 7 3.962 7s.1-.051.273-.148C3.34 6.343.546 4.564.546 2.179zm0 0"/>
            </g>
        </g>
    </g>
</svg>
