<svg xmlns="http://www.w3.org/2000/svg" width="32" height="32" viewBox="0 0 32 32">
    <defs>
        <style>
            .cls-2{fill:#a2a9b0}
        </style>
    </defs>
    <g id="ic_anniversary_balloon" transform="translate(-143 -206)">
        <path id="area" fill="rgba(0,0,0,0.16)" d="M0 0H32V32H0z" opacity="0.004" transform="translate(143 206)"/>
        <g id="balloon" transform="translate(91.937 205.993)">
            <g id="그룹_" transform="translate(69.563 10.007)">
                <path id="패스_13787" d="M1.015 3.462a2.462 2.462 0 0 0 .065-2.329L.7.363.489 0 0 .335l.157.3.385.77a1.863 1.863 0 0 1-.049 1.76A2.47 2.47 0 0 0 .52 5.657l.062.1.655-.079-.2-.335a1.867 1.867 0 0 1-.022-1.885z" class="cls-2" transform="rotate(6.02 -131.477 58.985)"/>
                <path id="다각형_1" fill="#7bbff8" d="M1.485.369a.4.4 0 0 1 .615 0l.938 1.126a.4.4 0 0 1-.307.656H.854a.4.4 0 0 1-.307-.656z" transform="translate(4.04 12.604)"/>
                <path id="패스_13875" fill="#9dd2ff" d="M5.75 2c3.176 0 5.75 3.322 5.75 6.535 0 2.4-2.478 5.513-4.672 6.466-.549.242-.272.41-1.078.41s-.5-.163-1.338-.522C2.494 14.07 0 10.945 0 8.535 0 5.322 2.574 2 5.75 2z" transform="translate(0 -2)"/>
            </g>
            <g id="그룹_2" transform="translate(53.063 10.007)">
                <path id="패스_13787-2" d="M1.011 3.449a2.453 2.453 0 0 0 .065-2.319L.694.362.488 0 0 .334l.157.3.383.766a1.856 1.856 0 0 1-.048 1.751 2.461 2.461 0 0 0 .026 2.485l.062.1.653-.078-.2-.334a1.861 1.861 0 0 1-.022-1.878z" class="cls-2" transform="rotate(6.02 -131.694 58.663)"/>
                <path id="다각형_1-2" fill="#fa636a" d="M1.478.369a.4.4 0 0 1 .615 0l.932 1.118a.4.4 0 0 1-.307.656H.854a.4.4 0 0 1-.307-.656z" transform="translate(4.011 12.61)"/>
                <path id="패스_13875-2" fill="#ff819c" d="M5.714 2c3.156 0 5.714 3.309 5.714 6.511 0 2.388-2.463 5.493-4.643 6.442-.546.241-.27.408-1.072.408s-.5-.162-1.33-.52C2.478 14.025 0 10.911 0 8.511 0 5.309 2.558 2 5.714 2z" transform="translate(0 -2)"/>
            </g>
            <g id="그룹_3" transform="translate(58.864 2.007)">
                <path id="패스_13787-3" d="M1.416 4.828a3.434 3.434 0 0 0 .09-3.247L.971.507.683 0 .239.455l.22.415L1 1.944A2.6 2.6 0 0 1 .928 4.4a3.445 3.445 0 0 0 .037 3.478l.087.145.675-.1-.28-.467a2.6 2.6 0 0 1-.03-2.63z" class="cls-2" transform="rotate(6.02 -184.491 79.898)"/>
                <path id="다각형_1-3" fill="#f0dc67" d="M2.193.369a.4.4 0 0 1 .615 0l1.645 1.975A.4.4 0 0 1 4.146 3H.854a.4.4 0 0 1-.307-.656z" transform="translate(5.615 17.653)"/>
                <path id="패스_13875-3" fill="#f7ed75" d="M8 2c4.418 0 8 4.633 8 9.115 0 3.343-3.448 7.69-6.5 9.019-.764.337-.378.571-1.5.571-1.1 0-.7-.227-1.862-.728C3.469 18.835 0 14.476 0 11.115 0 6.633 3.582 2 8 2z" transform="translate(0 -2)"/>
            </g>
        </g>
    </g>
</svg>
