<svg xmlns="http://www.w3.org/2000/svg" width="32" height="32" viewBox="0 0 32 32">
    <defs>
        <style>
            .cls-4{fill:#ff6243}.cls-5{fill:#e5583c}.cls-7{fill:#ff819c}
        </style>
    </defs>
    <g id="ic_anniversary_cake" transform="translate(0 -2.824)">
        <g id="icon" transform="translate(0 1)">
            <g id="초">
                <g id="촛대">
                    <path id="합치기_643" fill="#a2e2e7" d="M-5868 1791.824v-4h2v4zm-5 0v-5h2v5zm-5 0v-4h2v4z" transform="translate(5888 -1778)"/>
                    <path id="합치기_644" fill="#8bd4d9" d="M-5868 1788.824v-1h2v1zm-10 0v-1h2v1zm5-.932v-1.068h2v1.068z" transform="translate(5888 -1778)"/>
                </g>
                <g id="촛불">
                    <path id="패스_13778" d="M344 18a1 1 0 0 0 2 0 6.612 6.612 0 0 0-1-2 6.612 6.612 0 0 0-1 2zm0 0" class="cls-4" transform="translate(-324 -10.175)"/>
                    <path id="패스_13868" d="M344 18a1 1 0 0 0 2 0 6.612 6.612 0 0 0-1-2 6.612 6.612 0 0 0-1 2zm0 0" class="cls-4" transform="translate(-329 -11.176)"/>
                    <path id="패스_13870" d="M344 18a1 1 0 0 0 2 0 6.607 6.607 0 0 0-1-2 6.607 6.607 0 0 0-1 2zm0 0" class="cls-4" transform="translate(-334 -10.176)"/>
                    <path id="패스_13783" d="M345.125 18.992A1.019 1.019 0 0 1 345 19a1 1 0 0 1-1-1 6.609 6.609 0 0 1 1-2s.05.073.125.187A5.4 5.4 0 0 0 344.25 18a1 1 0 0 0 .875.992zm0 0" class="cls-5" transform="translate(-324 -10.175)"/>
                    <path id="패스_13867" d="M345.125 18.992A1.019 1.019 0 0 1 345 19a1 1 0 0 1-1-1 6.609 6.609 0 0 1 1-2s.05.073.125.187A5.4 5.4 0 0 0 344.25 18a1 1 0 0 0 .875.992zm0 0" class="cls-5" transform="translate(-329 -11.176)"/>
                    <path id="패스_13869" d="M345.127 18.993A1.023 1.023 0 0 1 345 19a1 1 0 0 1-1-1 6.6 6.6 0 0 1 1-2s.05.073.125.187A5.4 5.4 0 0 0 344.25 18a1 1 0 0 0 .877.993zm0 0" class="cls-5" transform="translate(-334 -10.176)"/>
                </g>
            </g>
            <g id="케이크">
                <path id="합치기_641" fill="#ffe8c9" d="M-5878 1804.824v-7.124a1.786 1.786 0 0 1 1.68-1.875h24.64a1.786 1.786 0 0 1 1.68 1.875v7.125zm4-10v-5.287a1.655 1.655 0 0 1 1.588-1.714h16.823a1.655 1.655 0 0 1 1.587 1.714v5.287z" transform="translate(5880 -1773)"/>
                <path id="패스_13871" d="M84.657 842.825a2 2 0 0 0-2-2h-24a2 2 0 0 0-2 1.995v3.946a3.691 3.691 0 0 0 3.92-2.218c1.107 2.209 3.508 2.932 5.364 1.614a4.368 4.368 0 0 0 1.356-1.614c1.107 2.209 3.508 2.932 5.364 1.614a4.368 4.368 0 0 0 1.356-1.614c1.107 2.209 3.508 2.932 5.364 1.614a4.368 4.368 0 0 0 1.356-1.614 3.689 3.689 0 0 0 3.92 2.223v-2.946z" class="cls-7" transform="translate(-54.654 -818.996)"/>
                <path id="패스_13872" d="M114.238 96h-16.47A1.718 1.718 0 0 0 96 97.672v3.291a4.135 4.135 0 0 0 2.941-1.852 4.248 4.248 0 0 0 5.634 1.345A4 4 0 0 0 106 99.111a4.248 4.248 0 0 0 5.634 1.345 4 4 0 0 0 1.425-1.345 4.135 4.135 0 0 0 2.941 1.852v-3.291A1.718 1.718 0 0 0 114.238 96z" class="cls-7" transform="translate(-90.003 -82.181)"/>
                <path id="합치기_640" fill="#ff5076" d="M-5851 1796.324v-1h1v1zm-6.75 0v-1h1v1zm-6.749 0v-1h1v1zm-6.75 0v-1h1v1zm-6.75 0v-1h1v1zm23.5-8.5v-1h.5v1zm-6.5 0v-1h1v1zm-7 0v-1h1v1zm-6 0v-1h.5v1z" transform="translate(5880 -1771)"/>
            </g>
        </g>
    </g>
</svg>
