<svg xmlns="http://www.w3.org/2000/svg" width="240" height="52" viewBox="0 0 240 52">
    <defs>
        <linearGradient id="q8nwetp3ma" x1="1.126" x2=".5" y1="1" y2="1" gradientUnits="objectBoundingBox">
            <stop offset="0" stop-color="#4d93ff"/>
            <stop offset="1" stop-color="#0ec1b8"/>
        </linearGradient>
    </defs>
    <g>
        <g>
            <path fill="url(#q8nwetp3ma)" d="M-4224.249 1684.871L-4227 1682l17.248-18 2.752 2.872-12.58 13.128h114.68a11.922 11.922 0 0 1 3.139-5.484 11.918 11.918 0 0 1 8.486-3.515 11.916 11.916 0 0 1 8.485 3.515 11.925 11.925 0 0 1 3.139 5.484h35.227l-12.576-13.129 2.752-2.872 17.248 18-2.752 2.872-14.5 15.128-2.752-2.872 12.58-13.128h-34.892a11.907 11.907 0 0 1-3.475 7.485 11.917 11.917 0 0 1-8.485 3.516 11.92 11.92 0 0 1-8.486-3.516 11.909 11.909 0 0 1-3.475-7.485h-114.343l12.58 13.128-2.752 2.873zm122.977-1.872a8.009 8.009 0 0 0 8 8 8.009 8.009 0 0 0 8-8 8.009 8.009 0 0 0-8-8 8.009 8.009 0 0 0-8 8.001z" transform="translate(-64.271 -353) translate(1) translate(4316.271 -1311)"/>
            <path fill="#4d93ff" d="M0 13l2.752-2.872L17.248-5 20-2.128 5.5 13 20 28.128 17.248 31z" opacity="0.4" transform="translate(-64.271 -353) translate(1) rotate(180 145.136 192)"/>
            <path fill="#4d93ff" d="M0 13l2.752-2.872L17.248-5 20-2.128 5.5 13 20 28.128 17.248 31z" opacity="0.2" transform="translate(-64.271 -353) translate(1) rotate(180 151.636 192)"/>
        </g>
        <g>
            <g>
                <path fill="#fff" d="M569 1208.611a2.147 2.147 0 0 0-1.517 2.63l-.37-1.383a2.146 2.146 0 1 0-4.146 1.113l-.371-1.383a2.146 2.146 0 1 0-4.146 1.112l-1.852-6.915a2.146 2.146 0 1 0-4.146 1.113l4.631 17.288-5.44-1.11a3.583 3.583 0 0 0-1.644.046 2.019 2.019 0 0 0-1.431 2.47v.009a2.016 2.016 0 0 0 .942 1.229l11.332 6.546a10.351 10.351 0 0 0 7.861 1.031 8.591 8.591 0 0 0 6.069-10.523l-3.15-11.757a2.146 2.146 0 0 0-2.622-1.516z" transform="translate(-64.271 -353) translate(164.94 368.997) translate(-495.418 -1199.441) translate(-.034 -.034)"/>
                <path d="M568.856 1233.064a10.994 10.994 0 0 1-8.406-1.105l-11.334-6.545a2.741 2.741 0 0 1 .659-5.019 4.314 4.314 0 0 1 1.971-.061l4.309.883-4.332-16.169a2.862 2.862 0 0 1 5.528-1.483l1.21 4.518a26.553 26.553 0 0 0 8.426.139 2.9 2.9 0 0 1 .479.54 2.861 2.861 0 0 1 4.915 1.146l3.15 11.759a9.32 9.32 0 0 1-6.575 11.397zm-18.709-11.286a1.308 1.308 0 0 0-.312 2.4l11.333 6.546a9.582 9.582 0 0 0 7.318.962 7.885 7.885 0 0 0 5.563-9.647l-3.149-11.755a1.431 1.431 0 1 0-2.764.742l.927 3.457a.715.715 0 1 1-1.382.371l-1.3-4.841a1.431 1.431 0 1 0-2.764.742l1.3 4.842a.715.715 0 1 1-1.382.37l-1.668-6.224a1.431 1.431 0 1 0-2.764.742l1.668 6.224a.715.715 0 1 1-1.382.371l-3.52-13.14a1.431 1.431 0 1 0-2.764.742l4.632 17.29a.715.715 0 0 1-.836.887l-5.447-1.108a2.868 2.868 0 0 0-1.307.027z" transform="translate(-64.271 -353) translate(164.94 368.997) translate(-495.418 -1199.441)"/>
            </g>
        </g>
    </g>
</svg>
